<svg width="281" height="280" viewBox="0 0 281 280" fill="none" xmlns="http://www.w3.org/2000/svg">
<path d="M96.6244 49.1406C98.3448 50.8444 100.157 52.448 102.173 53.7886C112.457 60.6284 143.053 77.086 191.58 70.36C252.213 61.9561 243.318 122.919 234.593 139.166C225.868 155.414 193.781 185.198 191.086 200.121C188.391 215.044 199.924 255.804 172.902 243.573C145.881 231.342 130.271 202.695 94.8042 206.025C59.3369 209.354 34.2748 193.638 49.9748 165.558C65.6748 137.478 84.4454 119.358 60.487 88.0801C37.1936 57.6723 76.4289 29.1396 96.6244 49.1406Z" fill="#F1F1F6"/>
<path d="M158.144 80.6433C157.694 80.1906 157.437 79.5816 157.426 78.9436C157.415 78.3056 157.651 77.6881 158.085 77.22L174.083 59.9524C174.31 59.7078 174.583 59.5116 174.888 59.3755C175.192 59.2394 175.521 59.1663 175.854 59.1605C176.188 59.1547 176.519 59.2164 176.828 59.3419C177.137 59.4673 177.417 59.654 177.652 59.8905L179.033 61.2813C179.268 61.5179 179.453 61.7996 179.576 62.1094C179.699 62.4192 179.759 62.7507 179.75 63.0841C179.742 63.4174 179.667 63.7457 179.529 64.0491C179.39 64.3525 179.192 64.6249 178.946 64.8498L161.567 80.7266C161.096 81.1571 160.477 81.3888 159.839 81.3732C159.201 81.3577 158.594 81.0962 158.144 80.6433Z" fill="#DCD9E7"/>
<path d="M148.019 74.7574C147.637 74.5879 147.335 74.2771 147.176 73.89C147.017 73.5029 147.014 73.0694 147.168 72.6802L152.829 58.3211C152.91 58.1178 153.03 57.9327 153.184 57.7771C153.337 57.6214 153.521 57.4985 153.723 57.4156C153.925 57.3327 154.142 57.2915 154.361 57.2946C154.58 57.2977 154.795 57.3449 154.995 57.4335L156.17 57.9543C156.37 58.0429 156.55 58.171 156.699 58.3309C156.848 58.4908 156.963 58.6792 157.038 58.8848C157.112 59.0903 157.144 59.3088 157.132 59.5271C157.12 59.7454 157.064 59.959 156.967 60.155L150.131 73.9933C149.945 74.3685 149.622 74.6575 149.229 74.7999C148.835 74.9423 148.402 74.9271 148.019 74.7574Z" fill="#DCD9E7"/>
<path d="M137.715 77.1041C136.411 77.339 135.102 76.2194 134.747 74.5662L128.468 45.2104C128.094 43.4561 128.934 41.7876 130.318 41.5381L132.247 41.1909C133.631 40.9417 135.001 42.2129 135.261 43.9874L139.612 73.6902C139.857 75.3636 139.02 76.8692 137.715 77.1041Z" fill="#DCD9E7"/>
<path d="M239.211 104.731L211.517 101.161C211.051 101.111 210.58 101.205 210.169 101.429C209.757 101.654 209.423 101.998 209.213 102.417L201.849 116.957L171.023 178.608C170.695 179.259 170.146 179.772 169.475 180.055C168.803 180.338 168.052 180.373 167.357 180.153L83.687 153.445C83.4562 153.372 83.2112 153.354 82.9722 153.393C82.7332 153.433 82.507 153.529 82.3122 153.673C82.1174 153.817 81.9595 154.005 81.8516 154.222C81.7437 154.439 81.6889 154.678 81.6916 154.92L81.7299 158.395C81.7346 158.878 81.8916 159.347 82.1785 159.736C82.4655 160.124 82.8677 160.413 83.328 160.559L171.853 188.815C172.84 189.13 173.726 189.7 174.422 190.468C175.117 191.236 175.597 192.174 175.814 193.187L175.843 193.325C176.613 197.555 172.445 201.027 168.337 199.781L71.2663 168.757C70.7684 168.598 70.3395 168.275 70.0505 167.839C69.7616 167.404 69.63 166.883 69.6775 166.363L77.2744 83.403C77.3126 82.9753 77.4403 82.5604 77.6493 82.1852C77.8582 81.81 78.1438 81.483 78.4873 81.2253C78.8309 80.9677 79.2248 80.7851 79.6434 80.6896C80.0621 80.594 80.4962 80.5876 80.9175 80.6707L197.207 103.42L204.697 88.5343C204.913 88.1136 205.253 87.7694 205.671 87.5482C206.089 87.3269 206.565 87.2392 207.035 87.297L240.948 91.6398C241.249 91.6776 241.539 91.7747 241.802 91.9255C242.065 92.0762 242.296 92.2777 242.48 92.5181C242.665 92.7586 242.8 93.0333 242.878 93.3263C242.956 93.6194 242.975 93.9249 242.933 94.2253L241.777 102.755C241.697 103.357 241.382 103.902 240.901 104.272C240.421 104.642 239.813 104.807 239.211 104.731Z" fill="#A7A7C4"/>
<path d="M81.9648 139.242L91.4406 142.266L100.53 96.1746L85.983 93.9409L81.9648 139.242Z" fill="#F1F1F6"/>
<path d="M156.312 162.973L165.788 165.997L190.294 114.385L179.856 111.856L156.312 162.973Z" fill="#F1F1F6"/>
<path d="M119.867 151.34L128.614 154.132L147.35 105.497L133.036 102.534L119.867 151.34Z" fill="#F1F1F6"/>
<path d="M108.778 98.0049L123.093 100.967L110.39 148.315L100.914 145.291L108.778 98.0049Z" fill="#F1F1F6"/>
<path d="M170.874 109.793L156.56 106.831L138.816 157.388L147.563 160.18L170.874 109.793Z" fill="#F1F1F6"/>
<path d="M83.7937 198.708C89.921 198.708 94.8881 193.741 94.8881 187.613C94.8881 181.486 89.921 176.519 83.7937 176.519C77.6664 176.519 72.6992 181.486 72.6992 187.613C72.6992 193.741 77.6664 198.708 83.7937 198.708Z" fill="#BBB9D1"/>
<path d="M153.04 220.81C159.167 220.81 164.134 215.843 164.134 209.716C164.134 203.588 159.167 198.621 153.04 198.621C146.912 198.621 141.945 203.588 141.945 209.716C141.945 215.843 146.912 220.81 153.04 220.81Z" fill="#BBB9D1"/>
<path d="M244.193 91.1807L214.965 87.5216C214.803 87.5013 214.655 87.6162 214.635 87.7783L212.864 101.929C212.843 102.091 212.958 102.239 213.12 102.259L242.348 105.918C242.51 105.938 242.658 105.823 242.678 105.661L244.449 91.5108C244.47 91.3488 244.355 91.201 244.193 91.1807Z" fill="#BBB9D1"/>
</svg>
