<svg width="16" height="16" viewBox="0 0 16 16" fill="none" xmlns="http://www.w3.org/2000/svg">
<path d="M6.13793 10.9694C6.13793 11.9066 5.39688 12.6663 4.48276 12.6663C3.56863 12.6663 2.82759 11.9066 2.82759 10.9694M6.13793 10.9694C6.13793 10.0322 5.39688 9.2724 4.48276 9.2724C3.56863 9.2724 2.82759 10.0322 2.82759 10.9694M6.13793 10.9694H9.86207M2.82759 10.9694H2V4.33301C2 3.78072 2.44772 3.33301 3 3.33301H9.86207V10.9694M13.5862 10.9694C13.5862 11.9066 12.8452 12.6663 11.931 12.6663C11.0169 12.6663 10.2759 11.9066 10.2759 10.9694M13.5862 10.9694C13.5862 10.0322 12.8452 9.2724 11.931 9.2724C11.0169 9.2724 10.2759 10.0322 10.2759 10.9694M13.5862 10.9694H14V7.57543L11.931 5.45422H9.86207V10.9694M10.2759 10.9694H9.86207" stroke="#6B7280" stroke-linecap="round" stroke-linejoin="round"/>
</svg>
