<svg width="25" height="24" viewBox="0 0 25 24" fill="none" xmlns="http://www.w3.org/2000/svg">
<path fill-rule="evenodd" clip-rule="evenodd" d="M4.30772 6.20659C5.20785 5.30673 6.42853 4.80122 7.70132 4.80122C8.97411 4.80122 10.1948 5.30673 11.0949 6.20659L12.5013 7.61179L13.9077 6.20659C14.3505 5.74815 14.8802 5.38247 15.4658 5.13091C16.0514 4.87934 16.6812 4.74693 17.3186 4.74139C17.9559 4.73585 18.588 4.8573 19.1779 5.09865C19.7678 5.34 20.3037 5.69641 20.7544 6.1471C21.2051 6.59778 21.5615 7.13371 21.8029 7.72361C22.0442 8.31352 22.1657 8.94558 22.1601 9.58292C22.1546 10.2203 22.0222 10.8501 21.7706 11.4357C21.519 12.0214 21.1534 12.551 20.6949 12.9938L12.5013 21.1886L4.30772 12.9938C3.40786 12.0937 2.90234 10.873 2.90234 9.60019C2.90234 8.32741 3.40786 7.10673 4.30772 6.20659Z" fill="#D1D5DB"/>
</svg>
