<svg width="20" height="20" viewBox="0 0 20 20" fill="none" xmlns="http://www.w3.org/2000/svg">
<path d="M3.5 4C3.5 3.72386 3.72386 3.5 4 3.5H16C16.2761 3.5 16.5 3.72386 16.5 4V6C16.5 6.27614 16.2761 6.5 16 6.5H4C3.72386 6.5 3.5 6.27614 3.5 6V4ZM3.5 9C3.5 8.72386 3.72386 8.5 4 8.5H16C16.2761 8.5 16.5 8.72386 16.5 9V11C16.5 11.2761 16.2761 11.5 16 11.5H4C3.72386 11.5 3.5 11.2761 3.5 11V9ZM3.5 14C3.5 13.7239 3.72386 13.5 4 13.5H16C16.2761 13.5 16.5 13.7239 16.5 14V16C16.5 16.2761 16.2761 16.5 16 16.5H4C3.72386 16.5 3.5 16.2761 3.5 16V14Z" stroke="#111827"/>
</svg>
