<svg width="75" height="31" viewBox="0 0 75 31" fill="none" xmlns="http://www.w3.org/2000/svg">
<path d="M0.764205 24V0.727272H4.98011V20.4659H15.2301V24H0.764205ZM26.321 24.3409C24.6165 24.3409 23.1392 23.9659 21.8892 23.2159C20.6392 22.4659 19.6695 21.4167 18.9801 20.0682C18.2983 18.7197 17.9574 17.1439 17.9574 15.3409C17.9574 13.5379 18.2983 11.9583 18.9801 10.6023C19.6695 9.24621 20.6392 8.19318 21.8892 7.44318C23.1392 6.69318 24.6165 6.31818 26.321 6.31818C28.0256 6.31818 29.5028 6.69318 30.7528 7.44318C32.0028 8.19318 32.9688 9.24621 33.6506 10.6023C34.34 11.9583 34.6847 13.5379 34.6847 15.3409C34.6847 17.1439 34.34 18.7197 33.6506 20.0682C32.9688 21.4167 32.0028 22.4659 30.7528 23.2159C29.5028 23.9659 28.0256 24.3409 26.321 24.3409ZM26.3438 21.0455C27.268 21.0455 28.0407 20.7917 28.6619 20.2841C29.2831 19.7689 29.7453 19.0795 30.0483 18.2159C30.3589 17.3523 30.5142 16.3902 30.5142 15.3295C30.5142 14.2614 30.3589 13.2955 30.0483 12.4318C29.7453 11.5606 29.2831 10.8674 28.6619 10.3523C28.0407 9.83712 27.268 9.57955 26.3438 9.57955C25.3968 9.57955 24.6089 9.83712 23.9801 10.3523C23.3589 10.8674 22.893 11.5606 22.5824 12.4318C22.2794 13.2955 22.1278 14.2614 22.1278 15.3295C22.1278 16.3902 22.2794 17.3523 22.5824 18.2159C22.893 19.0795 23.3589 19.7689 23.9801 20.2841C24.6089 20.7917 25.3968 21.0455 26.3438 21.0455ZM45.767 30.9091C44.2898 30.9091 43.0208 30.7083 41.9602 30.3068C40.8996 29.9129 40.0473 29.3826 39.4034 28.7159C38.7595 28.0492 38.3125 27.3106 38.0625 26.5L41.767 25.6023C41.9337 25.9432 42.1761 26.2803 42.4943 26.6136C42.8125 26.9545 43.2405 27.2348 43.7784 27.4545C44.3239 27.6818 45.0095 27.7955 45.8352 27.7955C47.0019 27.7955 47.9678 27.5114 48.733 26.9432C49.4981 26.3826 49.8807 25.4583 49.8807 24.1705V20.8636H49.6761C49.464 21.2879 49.1534 21.7235 48.7443 22.1705C48.3428 22.6174 47.8087 22.9924 47.142 23.2955C46.483 23.5985 45.6534 23.75 44.6534 23.75C43.3125 23.75 42.0966 23.4356 41.0057 22.8068C39.9223 22.1705 39.0587 21.2235 38.4148 19.9659C37.7784 18.7008 37.4602 17.1174 37.4602 15.2159C37.4602 13.2992 37.7784 11.6818 38.4148 10.3636C39.0587 9.03788 39.9261 8.03409 41.017 7.35227C42.108 6.66288 43.3239 6.31818 44.6648 6.31818C45.6875 6.31818 46.5284 6.49242 47.1875 6.84091C47.8542 7.18182 48.3845 7.5947 48.7784 8.07955C49.1723 8.55682 49.4716 9.00758 49.6761 9.43182H49.9034V6.54545H53.9602V24.2841C53.9602 25.7765 53.6042 27.0114 52.892 27.9886C52.1799 28.9659 51.2064 29.697 49.9716 30.1818C48.7367 30.6667 47.3352 30.9091 45.767 30.9091ZM45.8011 20.5227C46.6723 20.5227 47.4148 20.3106 48.0284 19.8864C48.642 19.4621 49.108 18.8523 49.4261 18.0568C49.7443 17.2614 49.9034 16.3068 49.9034 15.1932C49.9034 14.0947 49.7443 13.1326 49.4261 12.3068C49.1155 11.4811 48.6534 10.8409 48.0398 10.3864C47.4337 9.92424 46.6875 9.69318 45.8011 9.69318C44.8845 9.69318 44.1193 9.93182 43.5057 10.4091C42.892 10.8864 42.4299 11.5417 42.1193 12.375C41.8087 13.2008 41.6534 14.1402 41.6534 15.1932C41.6534 16.2614 41.8087 17.197 42.1193 18C42.4375 18.7955 42.9034 19.4167 43.517 19.8636C44.1383 20.303 44.8996 20.5227 45.8011 20.5227ZM65.7898 24.3409C64.0852 24.3409 62.608 23.9659 61.358 23.2159C60.108 22.4659 59.1383 21.4167 58.4489 20.0682C57.767 18.7197 57.4261 17.1439 57.4261 15.3409C57.4261 13.5379 57.767 11.9583 58.4489 10.6023C59.1383 9.24621 60.108 8.19318 61.358 7.44318C62.608 6.69318 64.0852 6.31818 65.7898 6.31818C67.4943 6.31818 68.9716 6.69318 70.2216 7.44318C71.4716 8.19318 72.4375 9.24621 73.1193 10.6023C73.8087 11.9583 74.1534 13.5379 74.1534 15.3409C74.1534 17.1439 73.8087 18.7197 73.1193 20.0682C72.4375 21.4167 71.4716 22.4659 70.2216 23.2159C68.9716 23.9659 67.4943 24.3409 65.7898 24.3409ZM65.8125 21.0455C66.7367 21.0455 67.5095 20.7917 68.1307 20.2841C68.7519 19.7689 69.214 19.0795 69.517 18.2159C69.8277 17.3523 69.983 16.3902 69.983 15.3295C69.983 14.2614 69.8277 13.2955 69.517 12.4318C69.214 11.5606 68.7519 10.8674 68.1307 10.3523C67.5095 9.83712 66.7367 9.57955 65.8125 9.57955C64.8655 9.57955 64.0777 9.83712 63.4489 10.3523C62.8277 10.8674 62.3617 11.5606 62.0511 12.4318C61.7481 13.2955 61.5966 14.2614 61.5966 15.3295C61.5966 16.3902 61.7481 17.3523 62.0511 18.2159C62.3617 19.0795 62.8277 19.7689 63.4489 20.2841C64.0777 20.7917 64.8655 21.0455 65.8125 21.0455Z" fill="#939393"/>
</svg>
