<svg width="24" height="24" viewBox="0 0 24 24" fill="none" xmlns="http://www.w3.org/2000/svg">
<rect width="24" height="24" rx="12" fill="white"/>
<circle cx="12" cy="9.59961" r="3" stroke="black" stroke-width="1.5" stroke-linecap="round" stroke-linejoin="round"/>
<path fill-rule="evenodd" clip-rule="evenodd" d="M7.20021 16.0205C7.19943 15.819 7.24451 15.6199 7.33201 15.4384C7.60661 14.8892 8.38098 14.5981 9.02355 14.4663C9.48696 14.3674 9.95678 14.3013 10.4295 14.2686C11.3047 14.1917 12.185 14.1917 13.0602 14.2686C13.5328 14.3017 14.0026 14.3678 14.4661 14.4663C15.1087 14.5981 15.883 14.8617 16.1576 15.4384C16.3336 15.8085 16.3336 16.2381 16.1576 16.6082C15.883 17.1848 15.1087 17.4485 14.4661 17.5748C14.0032 17.6778 13.5333 17.7457 13.0602 17.778C12.3478 17.8384 11.6321 17.8494 10.9183 17.8109C10.7535 17.8109 10.5943 17.8109 10.4295 17.778C9.95817 17.7461 9.48999 17.6782 9.02904 17.5748C8.38098 17.4485 7.6121 17.1848 7.33201 16.6082C7.24495 16.4245 7.19993 16.2238 7.20021 16.0205Z" stroke="black" stroke-width="1.5" stroke-linecap="round" stroke-linejoin="round"/>
</svg>
