<svg width="20" height="20" viewBox="0 0 20 20" fill="none" xmlns="http://www.w3.org/2000/svg">
<path d="M3 3.33333C3 3.14924 3.14924 3 3.33333 3H8.33333C8.51743 3 8.66667 3.14924 8.66667 3.33333V8.33333C8.66667 8.51743 8.51743 8.66667 8.33333 8.66667H3.33333C3.14924 8.66667 3 8.51743 3 8.33333V3.33333ZM11.3333 3.33333C11.3333 3.14924 11.4826 3 11.6667 3H16.6667C16.8508 3 17 3.14924 17 3.33333V8.33333C17 8.51743 16.8508 8.66667 16.6667 8.66667H11.6667C11.4826 8.66667 11.3333 8.51743 11.3333 8.33333V3.33333ZM3 11.6667C3 11.4826 3.14924 11.3333 3.33333 11.3333H8.33333C8.51743 11.3333 8.66667 11.4826 8.66667 11.6667V16.6667C8.66667 16.8508 8.51743 17 8.33333 17H3.33333C3.14924 17 3 16.8508 3 16.6667V11.6667ZM11.3333 11.6667C11.3333 11.4826 11.4826 11.3333 11.6667 11.3333H16.6667C16.8508 11.3333 17 11.4826 17 11.6667V16.6667C17 16.8508 16.8508 17 16.6667 17H11.6667C11.4826 17 11.3333 16.8508 11.3333 16.6667V11.6667Z" stroke="#111827"/>
</svg>
