<svg width="32" height="32" viewBox="0 0 32 32" fill="none" xmlns="http://www.w3.org/2000/svg">
<path d="M22.0104 11.4038C22.4009 11.0133 22.4009 10.3801 22.0104 9.98959C21.6199 9.59907 20.9867 9.59907 20.5962 9.98959L22.0104 11.4038ZM9.98959 20.5962C9.59907 20.9867 9.59907 21.6199 9.98959 22.0104C10.3801 22.4009 11.0133 22.4009 11.4038 22.0104L9.98959 20.5962ZM20.5962 22.0104C20.9867 22.4009 21.6199 22.4009 22.0104 22.0104C22.4009 21.6199 22.4009 20.9867 22.0104 20.5962L20.5962 22.0104ZM11.4038 9.98959C11.0133 9.59907 10.3801 9.59907 9.98959 9.98959C9.59907 10.3801 9.59907 11.0133 9.98959 11.4038L11.4038 9.98959ZM30 16C30 23.732 23.732 30 16 30V32C24.8366 32 32 24.8366 32 16H30ZM16 30C8.26801 30 2 23.732 2 16H0C0 24.8366 7.16344 32 16 32V30ZM2 16C2 8.26801 8.26801 2 16 2V0C7.16344 0 0 7.16344 0 16H2ZM16 2C23.732 2 30 8.26801 30 16H32C32 7.16344 24.8366 0 16 0V2ZM20.5962 9.98959L15.2929 15.2929L16.7071 16.7071L22.0104 11.4038L20.5962 9.98959ZM15.2929 15.2929L9.98959 20.5962L11.4038 22.0104L16.7071 16.7071L15.2929 15.2929ZM22.0104 20.5962L16.7071 15.2929L15.2929 16.7071L20.5962 22.0104L22.0104 20.5962ZM16.7071 15.2929L11.4038 9.98959L9.98959 11.4038L15.2929 16.7071L16.7071 15.2929Z" fill="#BD363E"/>
</svg>
