<svg width="16" height="16" viewBox="0 0 16 16" fill="#FBBF24" stroke="#FBBF24" xmlns="http://www.w3.org/2000/svg">
<path d="M7.66242 1.80888C7.80013 1.52985 8.19802 1.52985 8.33573 1.80888L10.1184 5.42097C10.1731 5.53177 10.2788 5.60857 10.4011 5.62634L14.3872 6.20556C14.6952 6.25031 14.8181 6.62872 14.5953 6.84592L11.7109 9.65753C11.6224 9.74378 11.582 9.86804 11.6029 9.98983L12.2838 13.9599C12.3364 14.2666 12.0145 14.5004 11.7391 14.3557L8.17377 12.4812C8.0644 12.4237 7.93374 12.4237 7.82437 12.4812L4.25903 14.3557C3.98361 14.5004 3.66172 14.2666 3.71432 13.9599L4.39524 9.98983C4.41612 9.86804 4.37575 9.74378 4.28727 9.65753L1.40285 6.84592C1.18003 6.62872 1.30298 6.25031 1.61091 6.20556L5.59708 5.62634C5.71936 5.60857 5.82506 5.53177 5.87975 5.42097L7.66242 1.80888Z" stroke-width="2" stroke-linejoin="round"/>
</svg>
